<?xml version="1.0" encoding="UTF-8"?>
<svg id="Layer_1" data-name="Layer 1" xmlns="http://www.w3.org/2000/svg" viewBox="0 0 118.57 173.86">
  <defs>
    <style>
      .cls-1 {
        fill: #fcfaef;
      }
    </style>
  </defs>
  <path class="cls-1" d="m85.04,172c-1.16,0-2.32-.07-3.48-.23-8.67-1.16-15.63-6.61-19.07-14.94-9.67-23.38,16.17-35.33,33.28-43.24.2-.09.39-.18.58-.27-5.22-6.69-12.5-13.99-21.36-17.67-7.57-3.15-21.63-7.04-21.77-7.08l-3.05-.84,1.68-6.1,3.05.84c.59.16,14.58,4.03,22.52,7.34,10.46,4.35,18.81,12.93,24.59,20.5,9.69-5.92,12.21-12.52,8.73-21.73-2.98-7.89-7.76-9.24-13.3-10.8-5.53-1.56-11.81-3.33-14.46-12.12-4.08-13.55,2.34-20.93,8.01-27.43,5.29-6.08,9.87-11.33,6.75-21.7-1.97-6.56-10.37-10.81-19.95-10.11-6.63.48-11.39,2.71-14.15,6.64-5.21,7.42-2.15,18.61-2.11,18.73l.86,3.05-6.1,1.71-.86-3.05c-.16-.58-3.89-14.23,3.03-24.08C62.35,3.85,68.7.72,77.32.09c12.7-.92,23.6,5.08,26.47,14.6,4.13,13.71-2.33,21.13-8.03,27.68-5.25,6.04-9.79,11.25-6.72,21.45,1.65,5.47,5.01,6.42,10.11,7.86,5.97,1.68,13.39,3.77,17.5,14.65,5.59,14.79-2,23.56-10.96,29.14.82,1.24,1.56,2.4,2.2,3.46,6.33,10.41,9.44,28.12-2.66,43.77-4.47,5.78-12.28,9.29-20.2,9.29Zm15.08-53.47c-.57.28-1.14.55-1.7.81-20.48,9.47-36.88,18.65-30.08,35.07,3.51,8.47,10.32,10.58,14.06,11.08,6.78.91,14.1-1.83,17.83-6.66,10.13-13.11,7.55-27.91,2.26-36.61-.68-1.12-1.47-2.36-2.37-3.7Z"/>
  <path class="cls-1" d="m35.49,95.95c-12.37,0-22.43-10.77-22.43-24.01s10.06-24.01,22.43-24.01,22.43,10.77,22.43,24.01-10.06,24.01-22.43,24.01Zm0-41.69c-8.87,0-16.1,7.93-16.1,17.68s7.22,17.68,16.1,17.68,16.1-7.93,16.1-17.68-7.22-17.68-16.1-17.68Z"/>
  <rect class="cls-1" x="25.9" y="89.07" width="6.33" height="84.75" transform="translate(-2.16 .5) rotate(-.94)"/>
  <rect class="cls-1" x="44.89" y="101.66" width="6.33" height="72.03" transform="translate(-4.38 1.61) rotate(-1.84)"/>
  <path class="cls-1" d="m58.77,78.75c-.26,0-.45,0-.54-.01l-3.16-.16.32-6.32,3.16.16c1.2.02,4.09-.29,5.15-1.65.82-1.06.51-2.88.1-4.23-.19-.63-.48-1.01-.98-1.28-1.53-.82-4.46-.34-5.63.01l-3.02.92-1.87-6.02,3.01-.94c.62-.19,6.2-1.83,10.47.43,2,1.06,3.41,2.81,4.09,5.06,1.52,5.05.19,8.21-1.19,9.97-2.93,3.74-8.14,4.07-9.91,4.07Z"/>
  <path class="cls-1" d="m11.65,83.29c-2.55,0-6.56-.52-9.22-3.37-1.58-1.7-3.22-4.85-2.02-10.24.51-2.28,1.8-4.08,3.73-5.21,4.25-2.46,10.22-.72,10.88-.51l3.02.94-1.88,6.05-3.02-.94c-1.28-.39-4.38-.91-5.84-.06-.28.17-.57.41-.72,1.1-.33,1.49-.52,3.48.47,4.54,1.31,1.42,4.62,1.47,6.02,1.28l3.12-.44.92,6.24-3.12.46c-.25.04-1.13.15-2.35.15Z"/>
  <ellipse class="cls-1" cx="35.49" cy="80.12" rx="7.92" ry="6" transform="translate(-4.1 1.95) rotate(-2.97)"/>
</svg>