<?xml version="1.0" encoding="UTF-8"?>
<svg id="Layer_9" data-name="Layer 9" xmlns="http://www.w3.org/2000/svg" viewBox="0 0 50 50">
  <defs>
    <style>
      .cls-1 {
        fill: none;
        stroke: #fcfaef;
        stroke-miterlimit: 10;
        stroke-width: 2px;
      }
    </style>
  </defs>
  <ellipse class="cls-1" cx="25.08" cy="30.31" rx="7.19" ry="5.98"/>
  <path class="cls-1" d="m19.02,27.91s-15.01-1.25-14.8-5.35c.12-2.46,9.65-5.19,20.33-5.19s20.31,1.4,20.58,4.06c.36,3.53-13.96,6.17-13.96,6.17"/>
  <path class="cls-1" d="m31.43,32.85s2.37-.47,5.82-1.41c3.01-.82,5.24-1.94,6.76-2.8.85-.48,1.34-1.42,1.23-2.39l-.11-4.83"/>
  <path class="cls-1" d="m18.85,32.99s-3.27-.2-6.56-.9c-2.75-.59-5.59-1.54-6.96-2.31-.77-.43-1.2-1.27-1.11-2.14v-4.7"/>
</svg>