<?xml version="1.0" encoding="UTF-8"?>
<svg id="Layer_7" data-name="Layer 7" xmlns="http://www.w3.org/2000/svg" viewBox="0 0 50 50">
  <defs>
    <style>
      .cls-1 {
        fill: none;
        stroke: #fcfaef;
        stroke-miterlimit: 10;
        stroke-width: 2px;
      }
    </style>
  </defs>
  <path class="cls-1" d="m24.89,32s6-5.61,7.7-10.03c1.95-5.03-2.09-10.22-7.49-10.22s-9.39,5.37-7.49,10.62c1.6,4.45,7.28,9.63,7.28,9.63Z"/>
  <circle class="cls-1" cx="25.11" cy="19.28" r="3.03"/>
  <path class="cls-1" d="m17.13,21.76s-1.2-.11-3.37.12c-3.15.34-4.59,1.81-4.59,1.81l.02,13.92s3.51-1.45,6.55-1.59c4.55-.22,11.19,2.59,14.95,2.24,6.72-.62,9.08-4,9.08-4l.42-14s-2.18,1.55-3.98,2.14c-2.59.84-3.68.68-3.68.68"/>
</svg>