<?xml version="1.0" encoding="UTF-8"?>
<svg id="Layer_6" data-name="Layer 6" xmlns="http://www.w3.org/2000/svg" viewBox="0 0 50 50">
  <defs>
    <style>
      .cls-1 {
        fill: #fcfaef;
      }

      .cls-1, .cls-2 {
        stroke: #dbd0bd;
        stroke-miterlimit: 10;
        stroke-width: 2px;
      }

      .cls-2 {
        fill: none;
      }
    </style>
  </defs>
  <path class="cls-2" d="m9.83,18.5s-4.06.66-3.92,3.58c.14,2.92,9.57,2.85,12.85,2.76,3.09-.08,11.83-.52,12.24-3.58.36-2.71-4.3-3.27-4.3-3.27,0,0-2.31-7.46-9.31-7.13-6.69.32-7.56,7.65-7.56,7.65Z"/>
  <path class="cls-2" d="m9.83,18.5s2.75,1.6,8.63,1.36c6.21-.25,8.75-1.79,8.75-1.79"/>
  <path class="cls-2" d="m29.81,38.56l11.17-9.45s1.59-.59,2.76.27c1.46,1.06,1.27,2.86,1.27,2.86l-8.77,11.31"/>
  <path class="cls-2" d="m22.4,31.14l12.64-7.45s1.56-.88,3.06.42c1.56,1.34,1.12,3.16,1.12,3.16l-11.16,9.64"/>
  <ellipse class="cls-2" cx="32.77" cy="41.37" rx="2.89" ry="4.11" transform="translate(-19.98 43.1) rotate(-53.5)"/>
  <ellipse class="cls-2" cx="24.84" cy="34.36" rx="2.89" ry="4.11" transform="translate(-17.3 29.72) rotate(-47.85)"/>
  <path class="cls-1" d="m33.64,27.67c-.48.66-.27,1.62-.27,1.62,0,0,2.65,1.36,3.27,1.88.78.67,2.25,2.46,2.25,2.46,0,0,1.25.61,1.97-.05.68-.62.44-1.92.44-1.92,0,0-1.08-1.58-2.68-2.86s-3.28-1.86-3.28-1.86c0,0-1.14-.02-1.69.74Z"/>
</svg>