<?xml version="1.0" encoding="UTF-8"?>
<svg id="Layer_5" data-name="Layer 5" xmlns="http://www.w3.org/2000/svg" viewBox="0 0 50 50">
  <defs>
    <style>
      .cls-1 {
        fill: #fcfaef;
        stroke: #dbd0bd;
        stroke-miterlimit: 10;
        stroke-width: 2px;
      }
    </style>
  </defs>
  <circle class="cls-1" cx="24.75" cy="17.49" r="7.8"/>
  <path class="cls-1" d="m11.22,43.07s1.75-6.14,3.71-9.89c1.5-2.88,4.13-6.16,4.13-6.16,0,0,2.82,1.29,5.98,1.29s5.49-1.58,5.49-1.58c0,0,2.84,3.4,4.85,7.2,2.29,4.32,3.87,9,3.87,9,0,0-6.39,2.69-14.5,2.62-8.09,0-13.53-2.48-13.53-2.48Z"/>
  <path class="cls-1" d="m16.56,11.92s-3.85.63-3.71,3.39,9.21,2.26,12.32,2.18c2.93-.08,11.07-.06,11.46-2.96.34-2.57-4.07-3.1-4.07-3.1,0,0-2.19-7.07-8.83-6.76s-7.16,7.25-7.16,7.25Z"/>
  <path class="cls-1" d="m16.56,11.92s2.6,1.52,8.18,1.29c5.89-.24,8.29-1.7,8.29-1.7"/>
</svg>